<svg width="28" height="29" viewBox="0 0 28 29" fill="none" xmlns="http://www.w3.org/2000/svg">
<path fill-rule="evenodd" clip-rule="evenodd" d="M4.66667 29C2.08934 29 0 26.8885 0 24.2837V10.6824C0 10.2027 0.216764 9.74916 0.588623 9.45095L11.0992 1.02185C12.7981 -0.340615 15.2019 -0.340617 16.9008 1.02185L27.4114 9.45095C27.7832 9.74916 28 10.2027 28 10.6824V24.2837C28 26.8885 25.9107 29 23.3333 29H4.66667ZM13.0331 3.48479C13.5994 3.03064 14.4006 3.03064 14.9669 3.48479L24.8889 11.4418V24.2837C24.8889 25.152 24.1924 25.8558 23.3333 25.8558H19.4444V18.7814C19.4444 15.7426 17.0069 13.2791 14 13.2791C10.9931 13.2791 8.55556 15.7426 8.55556 18.7814V25.8558H4.66667C3.80756 25.8558 3.11111 25.152 3.11111 24.2837V11.4418L13.0331 3.48479ZM11.6667 25.8558H16.3333V18.7814C16.3333 17.4791 15.2887 16.4233 14 16.4233C12.7113 16.4233 11.6667 17.4791 11.6667 18.7814V25.8558Z" fill="#0D0D0D"/>
</svg>
